# xmcd
#
# Track frame offsets:
#	182
#	12865
#	27165
#	42192
#	58080
#	61237
#	84005
#	88045
#	96230
#	101922
#	123322
#
# Disc length: 1997 seconds
#
# Revision: 0
# Processed by: cddbd v1.4PL0 Copyright (c) Steve Scherf et al.
# Submitted via: EasyCDDAExtractor 4.6.9.1
#
DISCID=8207cb0b
DTITLE=João Vilaret - O menino de sua mãe
DYEAR=1900
DGENRE=
TTITLE0=Procissão
TTITLE1=Rosa Araújo
TTITLE2=Santo António
TTITLE3=Sinfonia do Ribatejo
TTITLE4=O Poeta é um Fingidor
TTITLE5=A Múmia
TTITLE6=Sino da Minha Aldeia
TTITLE7=O Menino de sua Mãe
TTITLE8=O Mostrengo
TTITLE9=Três Poemas
TTITLE10=Excerto de uma Ode
EXTD=
EXTT0=
EXTT1=
EXTT2=
EXTT3=
EXTT4=
EXTT5=
EXTT6=
EXTT7=
EXTT8=
EXTT9=
EXTT10=
PLAYORDER=
